<?xml version="1.0" standalone="no"?><svg xmlns="http://www.w3.org/2000/svg" viewBox="0 0 1440 320"><path fill="#0099ff" fill-opacity="1" d="M0,288L30,250.7C60,213,120,139,180,96C240,53,300,43,360,58.7C420,75,480,117,540,117.3C600,117,660,75,720,69.3C780,64,840,96,900,101.3C960,107,1020,85,1080,90.7C1140,96,1200,128,1260,128C1320,128,1380,96,1410,80L1440,64L1440,320L1410,320C1380,320,1320,320,1260,320C1200,320,1140,320,1080,320C1020,320,960,320,900,320C840,320,780,320,720,320C660,320,600,320,540,320C480,320,420,320,360,320C300,320,240,320,180,320C120,320,60,320,30,320L0,320Z"></path></svg>